<?xml version="1.0" encoding="UTF-8" standalone="no"?>
<!-- Created with Inkscape (http://www.inkscape.org/) -->

<svg
   xmlns:dc="http://purl.org/dc/elements/1.1/"
   xmlns:cc="http://creativecommons.org/ns#"
   xmlns:rdf="http://www.w3.org/1999/02/22-rdf-syntax-ns#"
   xmlns:svg="http://www.w3.org/2000/svg"
   xmlns="http://www.w3.org/2000/svg"
   xmlns:sodipodi="http://sodipodi.sourceforge.net/DTD/sodipodi-0.dtd"
   xmlns:inkscape="http://www.inkscape.org/namespaces/inkscape"
   width="12.68441"
   height="43.659492"
   id="svg4266"
   version="1.1"
   inkscape:version="0.48.1 r9760"
   sodipodi:docname="chain-small.svg"
   inkscape:export-filename="/home/trevor/Development/web/trevorwhitney.com/chain.png"
   inkscape:export-xdpi="90"
   inkscape:export-ydpi="90">
  <defs
     id="defs4268" />
  <sodipodi:namedview
     id="base"
     pagecolor="#ffffff"
     bordercolor="#666666"
     borderopacity="1.0"
     inkscape:pageopacity="0.0"
     inkscape:pageshadow="2"
     inkscape:zoom="14.995048"
     inkscape:cx="-6.883468"
     inkscape:cy="20.852617"
     inkscape:document-units="px"
     inkscape:current-layer="layer1"
     showgrid="false"
     fit-margin-top="0"
     fit-margin-left="0"
     fit-margin-right="0"
     fit-margin-bottom="0"
     inkscape:window-width="1600"
     inkscape:window-height="876"
     inkscape:window-x="0"
     inkscape:window-y="24"
     inkscape:window-maximized="1" />
  <metadata
     id="metadata4271">
    <rdf:RDF>
      <cc:Work
         rdf:about="">
        <dc:format>image/svg+xml</dc:format>
        <dc:type
           rdf:resource="http://purl.org/dc/dcmitype/StillImage" />
        <dc:title></dc:title>
      </cc:Work>
    </rdf:RDF>
  </metadata>
  <g
     inkscape:label="Layer 1"
     inkscape:groupmode="layer"
     id="layer1"
     transform="translate(-383.71769,-498.31632)">
    <path
       style="fill:#4d4d4d;stroke:#000000;stroke-width:0.08065441"
       d="m 387.35419,511.53687 c -1.97879,0 -3.574,1.51704 -3.574,3.4001 l 0,10.83037 c 0,1.88303 1.59521,3.39756 3.574,3.39756 l 5.41393,0 c 1.97881,0 3.57148,-1.51453 3.57148,-3.39756 l 0,-10.83037 c 0,-1.88306 -1.59267,-3.4001 -3.57148,-3.4001 l -5.41393,0 z m 2.30118,3.98483 0.65531,0 c 1.04707,0 1.89035,0.98 1.89035,2.19783 l 0,5.11903 c 0,1.21784 -0.84328,2.20036 -1.89035,2.20036 l -0.65531,0 c -1.04708,0 -1.89034,-0.98252 -1.89034,-2.20036 l 0,-5.11903 c 0,-1.21783 0.84326,-2.19783 1.89034,-2.19783 z"
       id="rect3027"
       inkscape:connector-curvature="0"
       inkscape:export-filename="/home/trevor/Development/web/trevorwhitney.com/chain.png"
       inkscape:export-xdpi="90"
       inkscape:export-ydpi="90" />
    <path
       sodipodi:type="arc"
       style="fill:#000000;fill-opacity:1;stroke:none"
       id="path4164"
       sodipodi:cx="286.28986"
       sodipodi:cy="234.76996"
       sodipodi:rx="2.6516509"
       sodipodi:ry="2.6516509"
       d="m 288.94151,234.76996 c 0,1.46446 -1.18719,2.65165 -2.65165,2.65165 -1.46447,0 -2.65165,-1.18719 -2.65165,-2.65165 0,-1.46447 1.18718,-2.65165 2.65165,-2.65165 1.43298,0 2.60672,1.13847 2.65041,2.57079"
       sodipodi:start="0"
       sodipodi:end="6.2526863"
       sodipodi:open="true"
       transform="matrix(1.2904249,0,0,1.2904249,20.551762,198.78508)"
       inkscape:export-filename="/home/trevor/Development/web/trevorwhitney.com/chain.png"
       inkscape:export-xdpi="90"
       inkscape:export-ydpi="90" />
    <rect
       style="fill:#4d4d4d;stroke:#000000;stroke-width:0.0716425"
       id="rect3022"
       width="4.0395308"
       height="18.296709"
       x="387.97375"
       y="500.6235"
       rx="2.0197654"
       ry="1.2602309"
       inkscape:export-filename="/home/trevor/Development/web/trevorwhitney.com/chain.png"
       inkscape:export-xdpi="90"
       inkscape:export-ydpi="90" />
    <path
       sodipodi:type="arc"
       style="fill:#000000;fill-opacity:1;stroke:none"
       id="path4164-0"
       sodipodi:cx="286.28986"
       sodipodi:cy="234.76996"
       sodipodi:rx="2.6516509"
       sodipodi:ry="2.6516509"
       d="m 288.94151,234.76996 c 0,1.46446 -1.18719,2.65165 -2.65165,2.65165 -1.46447,0 -2.65165,-1.18719 -2.65165,-2.65165 0,-1.46447 1.18718,-2.65165 2.65165,-2.65165 1.43298,0 2.60672,1.13847 2.65041,2.57079"
       sodipodi:start="0"
       sodipodi:end="6.2526863"
       sodipodi:open="true"
       transform="matrix(1.2904249,0,0,1.2904249,20.550867,235.60106)"
       inkscape:export-filename="/home/trevor/Development/web/trevorwhitney.com/chain.png"
       inkscape:export-xdpi="90"
       inkscape:export-ydpi="90" />
    <rect
       style="fill:#4d4d4d;stroke:#000000;stroke-width:0.0716425"
       id="rect3022-4"
       width="4.0395317"
       height="18.296713"
       x="387.90707"
       y="521.41632"
       rx="2.0197659"
       ry="1.2602313"
       inkscape:export-filename="/home/trevor/Development/web/trevorwhitney.com/chain.png"
       inkscape:export-xdpi="90"
       inkscape:export-ydpi="90" />
  </g>
</svg>
